<?xml version="1.0" standalone="no"?>
<!DOCTYPE svg PUBLIC "-//W3C//DTD SVG 20010904//EN"
 "http://www.w3.org/TR/2001/REC-SVG-20010904/DTD/svg10.dtd">
<svg version="1.0" xmlns="http://www.w3.org/2000/svg"
 width="595.000000pt" height="595.000000pt" viewBox="0 0 595.000000 595.000000"
 preserveAspectRatio="xMidYMid meet">
<metadata>
Created by potrace 1.14, written by Peter Selinger 2001-2017
</metadata>
<g transform="translate(0.000000,595.000000) scale(0.100000,-0.100000)"
fill="#000000" stroke="none">
<path d="M3468 3505 c-2 -2 -95 -6 -208 -9 -196 -6 -304 -11 -490 -21 -47 -2
-132 -7 -190 -10 -113 -6 -193 -21 -225 -41 -11 -6 -54 -15 -95 -19 -41 -4
-84 -9 -95 -11 -11 -2 -44 -6 -73 -10 -29 -3 -63 -7 -75 -10 -12 -2 -89 -13
-172 -25 -82 -12 -159 -23 -170 -24 -11 -2 -51 -8 -90 -14 -67 -10 -87 -14
-165 -27 -69 -12 -87 -16 -245 -50 -88 -20 -227 -53 -310 -76 -181 -48 -515
-156 -515 -166 0 -19 450 -139 585 -157 28 -3 59 -8 70 -10 20 -4 55 -9 165
-21 30 -3 66 -7 80 -10 154 -24 719 -24 905 1 11 1 30 3 42 4 21 1 22 5 16 39
-13 78 -5 285 15 372 19 80 20 82 22 40 7 -148 9 -179 15 -229 3 -31 17 -105
31 -165 13 -60 23 -110 21 -112 -5 -6 -57 -12 -143 -19 -49 -4 -99 -8 -112
-10 -162 -26 -802 -25 -972 1 -109 16 -388 99 -505 149 -16 7 -84 37 -150 65
l-119 52 -49 -17 c-96 -35 -252 -103 -252 -111 0 -26 699 -299 816 -319 19 -3
59 -10 89 -16 167 -30 638 -30 855 0 63 9 312 7 355 -3 14 -3 45 -9 71 -12 43
-6 46 -5 74 32 44 58 69 77 130 100 40 14 52 16 150 19 158 5 269 -33 374
-129 100 -92 144 -75 295 112 51 63 69 78 150 118 84 42 96 45 152 42 63 -4
141 -37 299 -128 102 -58 144 -53 355 37 136 59 185 72 300 79 156 11 412 6
495 -10 11 -2 43 -7 70 -10 62 -9 148 -33 200 -56 22 -10 60 -27 85 -39 68
-30 153 -80 275 -159 60 -40 114 -72 120 -72 54 0 127 134 175 321 31 118 35
151 35 264 0 85 -4 107 -24 145 -32 63 -124 146 -187 169 -50 19 -223 55 -314
65 -25 3 -58 7 -75 9 -26 4 -133 15 -220 22 -16 2 -57 6 -90 9 -65 6 -132 12
-265 21 -47 3 -105 8 -130 10 -25 2 -99 7 -165 11 -66 4 -138 9 -160 11 -42 5
-833 12 -837 8z m1607 -399 c237 -19 549 -77 626 -117 114 -58 144 -148 96
-289 -43 -126 -76 -120 -457 82 -264 140 -404 180 -635 181 -172 1 -410 -55
-565 -133 -64 -32 -152 -51 -200 -43 -47 7 -107 32 -240 99 -107 54 -120 58
-185 59 -61 0 -79 -5 -137 -34 -37 -19 -77 -44 -90 -55 -64 -58 -178 -144
-217 -163 -60 -31 -80 -29 -137 12 -91 65 -129 78 -234 80 -53 1 -117 -1 -143
-5 -27 -4 -47 -3 -47 2 0 28 42 74 94 105 51 30 149 7 303 -71 47 -23 86 -36
112 -36 50 0 137 45 257 133 112 82 188 118 264 124 72 6 137 -12 290 -80 134
-60 203 -68 275 -31 199 103 302 144 406 159 24 4 62 10 84 14 22 4 71 9 110
10 38 1 71 4 72 5 4 4 218 -2 298 -8z"/>
</g>
</svg>
